<?xml version="1.0" encoding="UTF-8"?>
<svg xmlns="http://www.w3.org/2000/svg" xmlns:xlink="http://www.w3.org/1999/xlink" width="3000" height="3000" viewBox="0 0 3000 3000">
<defs>
<clipPath id="clip-0">
<path clip-rule="nonzero" d="M 300 300 L 2700 300 L 2700 2700 L 300 2700 Z M 300 300 "/>
</clipPath>
<clipPath id="clip-1">
<path clip-rule="nonzero" d="M 300 1500 C 300 1818.261719 426.429688 2123.484375 651.472656 2348.527344 C 876.515625 2573.570312 1181.738281 2700 1500 2700 C 1818.261719 2700 2123.480469 2573.570312 2348.53125 2348.527344 C 2573.570312 2123.484375 2700 1818.261719 2700 1500 C 2700 1181.738281 2573.570312 876.519531 2348.53125 651.46875 C 2123.480469 426.429688 1818.261719 300 1500 300 C 1181.738281 300 876.515625 426.429688 651.472656 651.46875 C 426.429688 876.519531 300 1181.738281 300 1500 Z M 300 1500 "/>
</clipPath>
<clipPath id="clip-2">
<path clip-rule="nonzero" d="M 300 1500 C 300 1818.261719 426.429688 2123.484375 651.472656 2348.527344 C 876.515625 2573.570312 1181.738281 2700 1500 2700 C 1818.261719 2700 2123.480469 2573.570312 2348.53125 2348.527344 C 2573.570312 2123.484375 2700 1818.261719 2700 1500 C 2700 1181.738281 2573.570312 876.519531 2348.53125 651.46875 C 2123.480469 426.429688 1818.261719 300 1500 300 C 1181.738281 300 876.515625 426.429688 651.472656 651.46875 C 426.429688 876.519531 300 1181.738281 300 1500 Z M 300 1500 "/>
</clipPath>
<linearGradient id="linear-pattern-0" gradientUnits="userSpaceOnUse" x1="6054.909434" y1="-2681.142677" x2="6660.025901" y2="-2018.840184" gradientTransform="matrix(-3.77953, -0.00000005, -0.00000005, 3.77953, 25555.5, 10406.77)">
<stop offset="0" stop-color="rgb(100%, 83.528137%, 89.802551%)" stop-opacity="1"/>
<stop offset="0.125" stop-color="rgb(100%, 83.528137%, 89.802551%)" stop-opacity="1"/>
<stop offset="0.1875" stop-color="rgb(100%, 83.71582%, 89.625549%)" stop-opacity="1"/>
<stop offset="0.21875" stop-color="rgb(100%, 84.049988%, 89.311218%)" stop-opacity="1"/>
<stop offset="0.25" stop-color="rgb(100%, 84.344482%, 89.035034%)" stop-opacity="1"/>
<stop offset="0.28125" stop-color="rgb(100%, 84.637451%, 88.757324%)" stop-opacity="1"/>
<stop offset="0.3125" stop-color="rgb(100%, 84.931946%, 88.48114%)" stop-opacity="1"/>
<stop offset="0.34375" stop-color="rgb(100%, 85.22644%, 88.204956%)" stop-opacity="1"/>
<stop offset="0.375" stop-color="rgb(100%, 85.519409%, 87.927246%)" stop-opacity="1"/>
<stop offset="0.40625" stop-color="rgb(100%, 85.813904%, 87.651062%)" stop-opacity="1"/>
<stop offset="0.4375" stop-color="rgb(100%, 86.108398%, 87.374878%)" stop-opacity="1"/>
<stop offset="0.46875" stop-color="rgb(100%, 86.401367%, 87.098694%)" stop-opacity="1"/>
<stop offset="0.47744" stop-color="rgb(100%, 86.695862%, 86.820984%)" stop-opacity="1"/>
<stop offset="0.5" stop-color="rgb(100%, 86.843872%, 86.683655%)" stop-opacity="1"/>
<stop offset="0.52256" stop-color="rgb(100%, 86.990356%, 86.5448%)" stop-opacity="1"/>
<stop offset="0.53125" stop-color="rgb(100%, 87.136841%, 86.407471%)" stop-opacity="1"/>
<stop offset="0.5625" stop-color="rgb(100%, 87.283325%, 86.268616%)" stop-opacity="1"/>
<stop offset="0.59375" stop-color="rgb(100%, 87.57782%, 85.990906%)" stop-opacity="1"/>
<stop offset="0.625" stop-color="rgb(100%, 87.872314%, 85.714722%)" stop-opacity="1"/>
<stop offset="0.65625" stop-color="rgb(100%, 88.165283%, 85.438538%)" stop-opacity="1"/>
<stop offset="0.6875" stop-color="rgb(100%, 88.459778%, 85.160828%)" stop-opacity="1"/>
<stop offset="0.71875" stop-color="rgb(100%, 88.752747%, 84.884644%)" stop-opacity="1"/>
<stop offset="0.75" stop-color="rgb(100%, 89.047241%, 84.608459%)" stop-opacity="1"/>
<stop offset="0.78125" stop-color="rgb(100%, 89.341736%, 84.33075%)" stop-opacity="1"/>
<stop offset="0.8125" stop-color="rgb(100%, 89.634705%, 84.054565%)" stop-opacity="1"/>
<stop offset="0.84375" stop-color="rgb(100%, 89.929199%, 83.778381%)" stop-opacity="1"/>
<stop offset="0.875" stop-color="rgb(100%, 90.135193%, 83.584595%)" stop-opacity="1"/>
<stop offset="1" stop-color="rgb(100%, 90.194702%, 83.528137%)" stop-opacity="1"/>
</linearGradient>
</defs>
<rect x="-300" y="-300" width="3600" height="3600" fill="rgb(100%, 100%, 100%)" fill-opacity="1"/>
<g clip-path="url(#clip-0)">
<g clip-path="url(#clip-1)">
<g clip-path="url(#clip-2)">
<path fill-rule="nonzero" fill="url(#linear-pattern-0)" d="M 2700 300 L 2700 2700 L 300 2700 L 300 300 Z M 2700 300 "/>
</g>
</g>
</g>
<path fill-rule="nonzero" fill="rgb(100%, 100%, 100%)" fill-opacity="1" d="M 2411.769531 1817.839844 C 2411.769531 1788.488281 2435.550781 1764.710938 2464.890625 1764.710938 C 2494.238281 1764.710938 2518.03125 1788.488281 2518.03125 1817.839844 C 2518.03125 1831.929688 2512.429688 1845.441406 2502.46875 1855.410156 C 2492.5 1865.371094 2478.988281 1870.96875 2464.890625 1870.96875 C 2450.808594 1870.96875 2437.289062 1865.371094 2427.328125 1855.410156 C 2417.359375 1845.441406 2411.769531 1831.929688 2411.769531 1817.839844 Z M 2411.769531 1817.839844 "/>
<path fill-rule="nonzero" fill="rgb(87.109375%, 52.929688%, 52.929688%)" fill-opacity="1" d="M 495.257812 455.410156 C 495.257812 417.679688 525.839844 387.101562 563.566406 387.101562 C 601.296875 387.101562 631.878906 417.679688 631.878906 455.410156 C 631.878906 473.53125 624.683594 490.898438 611.871094 503.710938 C 599.058594 516.519531 581.683594 523.71875 563.566406 523.71875 C 525.839844 523.71875 495.257812 493.140625 495.257812 455.410156 Z M 495.257812 455.410156 "/>
<path fill-rule="nonzero" fill="rgb(100%, 70.117188%, 50.193787%)" fill-opacity="1" d="M 426.945312 611.011719 C 426.945312 602.949219 430.144531 595.230469 435.835938 589.539062 C 441.53125 583.839844 449.253906 580.640625 457.304688 580.640625 C 474.074219 580.640625 487.667969 594.238281 487.667969 611.011719 C 487.667969 627.769531 474.074219 641.371094 457.304688 641.371094 C 449.253906 641.371094 441.53125 638.171875 435.839844 632.480469 C 430.144531 626.78125 426.945312 619.058594 426.945312 611.011719 Z M 426.945312 611.011719 "/>
<path fill-rule="nonzero" fill="rgb(87.109375%, 52.929688%, 52.929688%)" fill-opacity="1" d="M 669.828125 425.050781 C 669.828125 416.660156 676.625 409.871094 685.011719 409.871094 C 693.394531 409.871094 700.191406 416.660156 700.191406 425.050781 C 700.191406 429.070312 698.589844 432.929688 695.742188 435.78125 C 692.898438 438.628906 689.035156 440.230469 685.007812 440.230469 C 676.625 440.230469 669.828125 433.429688 669.828125 425.050781 Z M 669.828125 425.050781 "/>
<path fill-rule="nonzero" fill="rgb(100%, 70.117188%, 50.193787%)" fill-opacity="1" d="M 2252.398438 2622.105469 C 2252.398438 2603.082031 2267.820312 2587.660156 2286.851562 2587.660156 C 2295.980469 2587.660156 2304.738281 2591.289062 2311.199219 2597.75 C 2317.660156 2604.210938 2321.289062 2612.96875 2321.289062 2622.105469 C 2321.289062 2641.125 2305.871094 2656.546875 2286.851562 2656.546875 C 2267.820312 2656.546875 2252.398438 2641.125 2252.398438 2622.105469 Z M 2252.398438 2622.105469 "/>
<path fill-rule="nonzero" fill="rgb(100%, 70.117188%, 50.193787%)" fill-opacity="1" d="M 2423.148438 459.199219 C 2423.148438 442.429688 2436.738281 428.839844 2453.511719 428.839844 C 2461.558594 428.839844 2469.289062 432.039062 2474.980469 437.730469 C 2480.671875 443.429688 2483.871094 451.148438 2483.871094 459.199219 C 2483.871094 475.96875 2470.28125 489.558594 2453.511719 489.558594 C 2445.460938 489.558594 2437.730469 486.359375 2432.039062 480.671875 C 2426.351562 474.980469 2423.148438 467.25 2423.148438 459.199219 Z M 2423.148438 459.199219 "/>
<path fill-rule="nonzero" fill="rgb(33.325195%, 86.71875%, 100%)" fill-opacity="1" d="M 444.171875 2332.3125 C 444.175781 2315.546875 457.765625 2301.953125 474.535156 2301.953125 C 491.300781 2301.953125 504.894531 2315.546875 504.894531 2332.3125 C 504.894531 2349.082031 491.300781 2362.671875 474.535156 2362.671875 C 466.484375 2362.671875 458.761719 2359.476562 453.066406 2353.78125 C 447.371094 2348.085938 444.171875 2340.363281 444.171875 2332.3125 Z M 444.171875 2332.3125 "/>
<path fill-rule="nonzero" fill="rgb(50.193787%, 89.84375%, 100%)" fill-opacity="1" d="M 2229.578125 2214.652344 C 2229.578125 2171.855469 2264.269531 2137.160156 2307.070312 2137.160156 C 2327.628906 2137.160156 2347.339844 2145.324219 2361.871094 2159.855469 C 2376.410156 2174.390625 2384.570312 2194.101562 2384.570312 2214.652344 C 2384.570312 2235.207031 2376.410156 2254.917969 2361.871094 2269.453125 C 2347.339844 2283.984375 2327.628906 2292.148438 2307.070312 2292.148438 C 2264.269531 2292.148438 2229.578125 2257.453125 2229.578125 2214.652344 Z M 2229.578125 2214.652344 "/>
<path fill-rule="nonzero" fill="rgb(100%, 100%, 100%)" fill-opacity="1" d="M 693.6875 904.359375 C 693.6875 894.53125 701.65625 886.558594 711.488281 886.558594 C 716.210938 886.558594 720.738281 888.441406 724.078125 891.78125 C 727.417969 895.109375 729.292969 899.640625 729.292969 904.359375 C 729.292969 914.191406 721.320312 922.171875 711.488281 922.160156 C 701.65625 922.160156 693.6875 914.191406 693.6875 904.359375 Z M 693.6875 904.359375 "/>
<path fill-rule="nonzero" fill="rgb(17.259216%, 62.693787%, 53.709412%)" fill-opacity="1" d="M 1165.160156 768.140625 L 1021.648438 795.761719 L 1165.160156 933.839844 Z M 1165.160156 768.140625 "/>
<path fill-rule="nonzero" fill="rgb(12.939453%, 47.068787%, 40.380859%)" fill-opacity="1" d="M 1212.988281 685.289062 L 1165.160156 768.140625 L 1165.160156 933.839844 L 1212.988281 961.460938 L 1212.988281 685.289062 "/>
<path fill-rule="nonzero" fill="rgb(37.255859%, 82.8125%, 73.631287%)" fill-opacity="1" d="M 1978.351562 1182.398438 L 1212.988281 685.289062 L 1212.988281 961.460938 L 1739.171875 1265.25 L 1834.839844 1154.78125 Z M 1978.351562 1182.398438 "/>
<path fill-rule="nonzero" fill="rgb(68.554688%, 91.40625%, 86.71875%)" fill-opacity="1" d="M 1021.648438 795.761719 L 1021.648438 1900.449219 L 1739.171875 2314.710938 L 1739.171875 1265.25 Z M 1021.648438 795.761719 "/>
<path fill-rule="nonzero" fill="rgb(12.939453%, 47.068787%, 40.380859%)" fill-opacity="1" d="M 1739.171875 1265.25 L 1739.171875 2314.710938 L 1834.839844 2204.242188 L 1834.839844 1154.78125 Z M 1739.171875 1265.25 "/>
<path fill-rule="nonzero" fill="rgb(21.556091%, 78.514099%, 66.992188%)" fill-opacity="1" d="M 1834.839844 2204.242188 L 1739.171875 2314.710938 L 1978.351562 2176.625 Z M 1834.839844 2204.242188 "/>
<path fill-rule="nonzero" fill="rgb(17.259216%, 62.693787%, 53.709412%)" fill-opacity="1" d="M 1834.839844 2204.242188 L 1978.351562 2176.625 L 1978.351562 1182.398438 L 1834.839844 1154.78125 Z M 1834.839844 2204.242188 "/>
<path fill-rule="nonzero" fill="rgb(8.616638%, 31.37207%, 26.660156%)" fill-opacity="1" d="M 1291.339844 1155.101562 C 1291.339844 1173.320312 1276.570312 1178.460938 1258.359375 1166.589844 C 1240.140625 1154.730469 1225.378906 1130.339844 1225.378906 1112.128906 C 1225.378906 1093.910156 1240.140625 1088.769531 1258.359375 1100.628906 C 1276.570312 1112.5 1291.339844 1136.890625 1291.339844 1155.101562 Z M 1291.339844 1155.101562 "/>
<path fill-rule="nonzero" fill="rgb(8.616638%, 31.37207%, 26.660156%)" fill-opacity="1" d="M 1535.441406 1314.128906 C 1535.441406 1322.878906 1531.96875 1329 1525.789062 1331.160156 C 1519.601562 1333.308594 1511.210938 1331.320312 1502.460938 1325.621094 C 1484.25 1313.761719 1469.480469 1289.371094 1469.480469 1271.160156 C 1469.480469 1262.410156 1472.960938 1256.289062 1479.140625 1254.128906 C 1485.328125 1251.980469 1493.71875 1253.96875 1502.460938 1259.660156 C 1520.679688 1271.53125 1535.441406 1295.921875 1535.441406 1314.128906 Z M 1535.441406 1314.128906 "/>
<path fill-rule="nonzero" fill="rgb(8.616638%, 31.37207%, 26.660156%)" fill-opacity="1" d="M 1248.019531 1114.511719 L 1248.019531 1144.539062 C 1248.019531 1222.238281 1307.191406 1324.300781 1381.121094 1372.460938 C 1455.050781 1420.621094 1514.21875 1395.671875 1514.21875 1317.960938 L 1514.21875 1287.941406 L 1493.308594 1274.308594 L 1493.308594 1304.339844 C 1493.308594 1371.511719 1443.078125 1391.910156 1381.121094 1351.539062 C 1319.160156 1311.179688 1268.929688 1225.339844 1268.929688 1158.160156 L 1268.929688 1128.140625 Z M 1248.019531 1114.511719 "/>
</svg>
